<?xml version="1.0" encoding="UTF-8" standalone="no"?>
<!-- Generator: Adobe Illustrator 13.0.2, SVG Export Plug-In . SVG Version: 6.00 Build 14948)  -->

<svg
   xmlns:dc="http://purl.org/dc/elements/1.1/"
   xmlns:cc="http://creativecommons.org/ns#"
   xmlns:rdf="http://www.w3.org/1999/02/22-rdf-syntax-ns#"
   xmlns:svg="http://www.w3.org/2000/svg"
   xmlns="http://www.w3.org/2000/svg"
   xmlns:sodipodi="http://sodipodi.sourceforge.net/DTD/sodipodi-0.dtd"
   xmlns:inkscape="http://www.inkscape.org/namespaces/inkscape"
   version="1.1"
   id="Layer_1"
   x="0px"
   y="0px"
   width="700"
   height="774.88599"
   viewBox="0 0 700.00001 774.88598"
   enable-background="new 0 0 396.826 396.858"
   xml:space="preserve"
   sodipodi:version="0.32"
   inkscape:version="0.91 r13725"
   sodipodi:docname="StylisedLion5.svg"
   inkscape:output_extension="org.inkscape.output.svg.inkscape"><metadata
     id="metadata3189"><rdf:RDF><cc:Work
         rdf:about=""><dc:format>image/svg+xml</dc:format><dc:type
           rdf:resource="http://purl.org/dc/dcmitype/StillImage" /><dc:title></dc:title></cc:Work></rdf:RDF></metadata><defs
     id="defs3187"><inkscape:perspective
       sodipodi:type="inkscape:persp3d"
       inkscape:vp_x="0 : 198.429 : 1"
       inkscape:vp_y="0 : 999.99999 : 0"
       inkscape:vp_z="396.82599 : 198.429 : 1"
       inkscape:persp3d-origin="198.41299 : 132.286 : 1"
       id="perspective3191" /></defs><sodipodi:namedview
     inkscape:window-height="837"
     inkscape:window-width="1600"
     inkscape:pageshadow="2"
     inkscape:pageopacity="0.0"
     guidetolerance="10.0"
     gridtolerance="10.0"
     objecttolerance="10.0"
     borderopacity="1.0"
     bordercolor="#666666"
     pagecolor="#ffffff"
     id="base"
     showgrid="false"
     inkscape:zoom="0.86464333"
     inkscape:cx="350"
     inkscape:cy="387.44299"
     inkscape:window-x="-8"
     inkscape:window-y="-8"
     inkscape:current-layer="g2448"
     fit-margin-top="0"
     fit-margin-left="0"
     fit-margin-right="0"
     fit-margin-bottom="0"
     inkscape:window-maximized="1" /><g
     id="g2448"
     transform="translate(-384.37688,896.03747)"><g
       transform="matrix(12.109133,0,0,12.109133,-2366.4326,-1612.0223)"
       style="clip-rule:evenodd;fill-rule:evenodd;image-rendering:optimizeQuality;shape-rendering:geometricPrecision;text-rendering:geometricPrecision"
       id="g5356"><path
         class="fil4 str1"
         d="m 234.42161,103.191 c -0.4184,5.3098 5.9696,4.7325 8.1939,2.5628 l -2.8864,-2.9893 -5.3075,0.4265 z"
         id="path211"
         inkscape:connector-curvature="0"
         style="fill:#fed018;stroke:#0a0b0c;stroke-width:0.3175;stroke-linecap:round;stroke-linejoin:round" /><path
         class="fil4 str1"
         d="m 242.95211,80.2881 c -1.4098,1.0984 -2.9531,1.9928 -4.9755,2.1591 0.3143,1.3782 1.5851,2.2411 4.2552,2.3496 1.8877,-0.4022 3.775,-0.8044 5.6626,-1.2067 -0.8182,-0.9524 -1.6365,-1.9049 -2.4551,-2.8576 -0.8288,-0.148 -1.6581,-0.2962 -2.4872,-0.4443 l 0,-1e-4 z"
         id="path213"
         inkscape:connector-curvature="0"
         style="fill:#fed018;stroke:#0a0b0c;stroke-width:0.3175;stroke-linecap:round;stroke-linejoin:round" /><path
         class="fil1 str3"
         d="m 234.15051,84.6835 c -0.9746,-1.6498 -2.0704,-2.6197 -3.5979,-1.1636 0.8834,0.2795 1.6569,0.693 1.6545,2.0463 0.648,-0.2943 1.2957,-0.5885 1.9434,-0.8827 l 0,0 z"
         id="path215"
         inkscape:connector-curvature="0"
         style="fill:#ffffff;stroke:#0a0b0c;stroke-width:0.3175;stroke-linejoin:round" /><path
         class="fil5 str1"
         d="m 234.15051,84.6835 c -0.9746,-1.6498 -2.0704,-2.6197 -3.5979,-1.1636 0.8834,0.2795 1.6545,0.693 1.6545,2.0463 0.648,-0.2943 1.2957,-0.5885 1.9434,-0.8827 l 0,0 z"
         id="path217"
         inkscape:connector-curvature="0"
         style="fill:none;stroke:#0a0b0c;stroke-width:0.3175;stroke-linecap:round;stroke-linejoin:round" /><path
         class="fil1 str1"
         d="m 231.04901,87.2114 c -1.8708,0.1944 -3.6235,0.7073 -3.7221,2.0859 0.9925,-0.1737 2.0265,-0.0667 3.019,0.0805 0.2484,-0.5082 0.4552,-1.6584 0.7031,-2.1664 l 0,0 z"
         id="path219"
         inkscape:connector-curvature="0"
         style="fill:#ffffff;stroke:#0a0b0c;stroke-width:0.3175;stroke-linecap:round;stroke-linejoin:round" /><path
         class="fil1 str1"
         d="m 231.29681,92.4261 c -1.976,-0.0304 -2.2079,1.1615 -2.1917,2.5278 0.972,-0.6287 2.0199,-0.8033 3.102,-0.3613 -0.2899,-0.6821 -0.6205,-1.4845 -0.9104,-2.1664 l 1e-4,-10e-5 z"
         id="path221"
         inkscape:connector-curvature="0"
         style="fill:#ffffff;stroke:#0a0b0c;stroke-width:0.3175;stroke-linecap:round;stroke-linejoin:round" /><path
         class="fil1 str1"
         d="m 240.56121,91.7849 c 1.0268,1.3507 1.2474,2.5274 0.2891,3.4498 -0.5096,-0.8025 -1.1851,-1.2833 -2.0264,-1.444 0.5792,-0.6686 1.1585,-1.3375 1.7373,-2.0056 l 0,-2e-4 z"
         id="path223"
         inkscape:connector-curvature="0"
         style="fill:#ffffff;stroke:#0a0b0c;stroke-width:0.3175;stroke-linecap:round;stroke-linejoin:round" /><path
         class="fil1 str1"
         d="m 240.56121,91.7849 c 1.0268,1.3507 1.2474,2.5274 0.2891,3.4498 -0.5096,-0.8025 -1.1851,-1.2833 -2.0264,-1.444 0.5792,-0.6686 1.1585,-1.3375 1.7373,-2.0056 l 0,-2e-4 z"
         id="path225"
         inkscape:connector-curvature="0"
         style="fill:#ffffff;stroke:#0a0b0c;stroke-width:0.3175;stroke-linecap:round;stroke-linejoin:round" /><path
         class="fil1 str1"
         d="m 237.51221,111.511 c -1.9165,-1.8126 -3.5713,-2.0501 -4.5713,-0.8109 1.344,0.2226 1.8353,1.0013 1.7204,2.194 0.7704,-0.4456 2.0812,-0.9383 2.8509,-1.383 l 0,-1e-4 z"
         id="path227"
         inkscape:connector-curvature="0"
         style="fill:#ffffff;stroke:#0a0b0c;stroke-width:0.3175;stroke-linecap:round;stroke-linejoin:round" /><path
         class="fil1 str1"
         d="m 233.62941,115.23 c -1.9923,-0.383 -3.5165,-0.0654 -3.146,2.0986 0.9014,-0.5649 1.8026,-0.5963 2.7031,0.2376 0.1315,-0.699 0.3119,-1.6371 0.4429,-2.3361 l 0,-10e-5 z"
         id="path229"
         inkscape:connector-curvature="0"
         style="fill:#ffffff;stroke:#0a0b0c;stroke-width:0.3175;stroke-linecap:round;stroke-linejoin:round" /><path
         class="fil1 str1"
         d="m 236.38211,118.568 c -2.5895,0.3498 -2.8349,1.5734 -2.0158,3.1947 -0.0492,-0.7315 0.4916,-1.2083 2.8023,-0.6675 -0.3118,-0.8899 -0.4754,-1.6371 -0.7865,-2.5272 l 0,0 z"
         id="path231"
         inkscape:connector-curvature="0"
         style="fill:#ffffff;stroke:#0a0b0c;stroke-width:0.3175;stroke-linecap:round;stroke-linejoin:round" /><path
         class="fil1 str1"
         d="m 244.88611,119.188 c 1.3028,1.1847 1.9583,2.9326 -0.0496,3.7192 0.2337,-1.146 -0.9148,-1.5107 -2.261,-1.7634 0.7702,-0.6527 1.5406,-1.3041 2.3106,-1.9558 l 0,0 z"
         id="path233"
         inkscape:connector-curvature="0"
         style="fill:#ffffff;stroke:#0a0b0c;stroke-width:0.3175;stroke-linecap:round;stroke-linejoin:round" /><path
         class="fil1 str1"
         d="m 264.81011,111.893 c -2.9455,-0.5463 -3.8804,0.5822 -4.0407,1.6855 1.162,-0.3967 2.4247,-0.3499 2.9416,0.7542 0.2785,-0.6675 0.8207,-1.7722 1.0991,-2.4395 l 0,-2e-4 z"
         id="path235"
         inkscape:connector-curvature="0"
         style="fill:#ffffff;stroke:#0a0b0c;stroke-width:0.3175;stroke-linecap:round;stroke-linejoin:round" /><path
         class="fil1 str1"
         d="m 264.07311,116.666 c -1.7455,-0.454 -3.7891,0.01 -3.1761,2.3521 1.1278,-0.9723 2.506,-1.0386 3.4489,-0.0663 -0.1361,-0.6518 -0.1361,-1.6342 -0.2728,-2.2856 l 0,-2e-4 z"
         id="path237"
         inkscape:connector-curvature="0"
         style="fill:#ffffff;stroke:#0a0b0c;stroke-width:0.3175;stroke-linecap:round;stroke-linejoin:round" /><path
         class="fil1 str3"
         d="m 266.29211,119.184 c -1.7244,0.5962 -2.339,1.7661 -1.6046,3.7768 0.8825,-1.2432 2.4302,-1.4082 4.1319,-1.3253 0,0 -2.5956,-2.4846 -2.5273,-2.4515 l 0,0 z"
         id="path239"
         inkscape:connector-curvature="0"
         style="fill:#ffffff;stroke:#0a0b0c;stroke-width:0.3175;stroke-linejoin:round" /><path
         class="fil5 str1"
         d="m 266.29211,119.184 c -1.7244,0.5962 -2.339,1.7661 -1.6046,3.7768 0.8825,-1.2432 2.4302,-1.4082 4.1319,-1.3253 0,0 -2.5273,-2.4515 -2.5273,-2.4515 l 0,0 z"
         id="path241"
         inkscape:connector-curvature="0"
         style="fill:none;stroke:#0a0b0c;stroke-width:0.3175;stroke-linecap:round;stroke-linejoin:round" /><path
         class="fil1 str1"
         d="m 277.76611,117.793 c 1.6218,-1.0543 2.5669,-1.3521 3.2785,-0.4635 0.4315,-1.4999 0.0742,-2.5321 -3.4153,-2.3521 -0.0334,0.9605 0.1709,1.8554 0.1368,2.8158 l 0,-2e-4 z"
         id="path243"
         inkscape:connector-curvature="0"
         style="fill:#ffffff;stroke:#0a0b0c;stroke-width:0.3175;stroke-linecap:round;stroke-linejoin:round" /><path
         class="fil4 str3"
         d="m 262.92311,81.8097 c -0.2353,2.428 1.5534,7.442 2.7535,8.4513 0.9176,0.7709 2.528,1.9413 4.1726,1.6759 7.8478,-1.2688 3.475,-9.8517 2.1861,-14.4781 -1.2749,-4.5765 -2.2634,-8.1795 -2.2431,-11.663 0.007,-1.2438 0.1637,-2.3287 0.6547,-3.4814 l 0.3028,-0.5775 c 3.4147,-3.807 10.9254,-3.2949 10.559,2.3646 l 0.3992,1.5479 -3.6323,0 0.3975,-1.6392 c 0.0357,-4.3398 -6.2952,-2.5321 -5.867,1.5543 0.1621,1.547 0.5707,6.9718 2.2618,11.932 1.9996,5.8638 6.089,16.6076 -5.569,17.0301 -1.4052,0.2049 -4.281,-0.5749 -4.8997,-1.7123 2.3253,3.1658 1.5973,6.098 2.6005,8.0353 0.9689,1.8718 3.0751,1.8102 5.0056,-0.3199 3.2225,-3.5556 5.0697,0.2441 5.0363,1.341 1.6032,-1.8424 4.3885,-0.3396 5.5788,-2.5983 0.7409,0.3033 1.4541,2.6544 -0.4266,4.2688 -0.6278,0.5387 -3.2648,0.5283 -4.0896,0.8972 1.8987,-0.5206 2.9586,-0.3649 4.1612,-0.9035 0.4258,1.8354 0.5194,3.8834 -3.9545,4.2158 -0.0155,1.4256 0.2385,1.3584 0.0269,3.3503 -0.9949,-0.2069 -3.4586,1.5708 -3.2484,3.1014 1.4085,-0.849 2.5076,-0.6996 3.2778,0.7771 -0.1873,0.842 -0.4195,1.755 0.1693,2.3285 -1.1781,4.3831 -6.4377,0.8221 -6.0729,-0.4471 0.351,6.9153 -4.2532,5.4432 -5.2546,4.7774 -0.0888,-1.6475 -1.0073,-1.8789 -2.1487,-1.9247 -0.7897,-0.0839 -1.1219,-0.7534 -1.4534,-1.1555 0.031,-0.9461 0.0206,-1.4744 -0.5308,-2.1331 0.0335,-0.4456 0.1809,-0.9343 0.4618,-1.3798 -0.2679,-0.3381 -0.3071,-0.7156 -0.1189,-1.1744 0.5902,-0.5395 0.617,-1.2858 0.3907,-2.0969 0.0635,-0.6793 1.9784,-1.4381 3.3308,-0.2891 3.497,4.1259 5.5071,2.8298 3.7924,-4.283 -1.682,1.5306 -9.9206,1.5607 -10.655,-3.6803 0.1303,1.2588 0.7604,2.2564 2.3439,3.4363 -0.4786,1.6521 -3.4749,3.5343 -4.1726,3.1394 1.6431,-4.3013 -2.5347,-3.7507 -2.5307,-10.0326 -10.3333,-1.8268 -10.2814,5.7891 -3.9986,5.5427 2.109,-0.0831 3.6494,1.8466 1.828,4.0538 3.9249,1.732 3.9249,3.9909 1.8304,4.9134 0.4584,1.4626 -0.6463,2.2753 -2.3372,3.0856 -0.6314,-1.6419 -1.7972,-2.4555 -3.2506,-2.7137 -0.3418,0.6271 -0.8808,1.1767 -1.5566,1.661 -1.2388,-0.5568 -2.69,-0.6887 -4.0053,-0.1043 2.5675,1.4262 1.9365,2.6553 1.3034,3.6503 -1.1841,0.1043 -1.7057,0.6263 -1.9682,1.263 -2.2707,0.4216 -4.1352,-0.3657 -3.192,-3.16 -0.335,0.8276 -0.2662,1.4784 -0.0749,2.2555 -0.6872,1.6989 -2.694,2.0859 -4.3936,0.3894 0.6139,-1.6798 -0.7368,-2.449 -1.7754,-1.6411 -1.0449,-0.1295 -1.6312,-0.781 -1.5229,-1.9935 0.5749,-1.1348 0.5708,-1.8226 -0.0898,-2.2199 0.3031,-0.8594 0.7555,-1.1683 1.5985,-1.3213 -0.2067,-0.4417 -0.2858,-1.1247 0.5023,-1.3291 0.7328,-0.3437 1.9239,-1.248 1.7119,-1.6438 4.019,-1.5037 2.2027,3.6211 5.1818,3.0889 3.0218,-0.5402 3.9731,-2.28 4.8109,-4.715 -4.7035,-1.0552 -7.0923,-2.8401 -7.6517,-4.8421 -6.3653,2.498 -7.8359,-1.8283 -8.0113,-3.0722 2.659,1.149 6.4766,-0.3673 7.6076,-2.6672 2.0013,-4.0691 10.7186,-5.4092 15.5552,-4.6778 0.004,-0.5838 -0.3819,-1.199 -1.467,-1.8971 -0.2279,-0.3521 0.7537,-0.7017 0.5576,-1.0481 -1.1137,-0.0269 -1.5356,-0.6993 -1.5681,-0.9002 -0.4963,0.0492 -0.8194,-0.0056 -1.2713,-0.0447 -1.9961,1.9759 -4.8171,1.1484 -6.5053,-0.7112 -1.3214,0.5093 -2.2489,0.7787 -2.8387,0.8569 0.3375,1.2044 0.2805,1.961 -0.0477,2.3606 -1.038,0.3187 -1.4593,0.8033 -1.5216,1.5567 -1.3909,0.8704 -2.9839,0.0039 -3.2006,-0.1335 -1.0519,1.8793 -3.7577,1.7245 -4.7762,0.4708 0.2421,-1.0014 -0.4198,-1.6246 -0.931,-1.8844 -0.46,-0.696 -0.008,-1.37 0.1254,-1.5729 -0.386,-0.4472 -0.7378,-0.986 -0.7768,-1.6191 0.4292,-0.2812 0.3664,-1.4022 0.1556,-2.0522 0.2812,-0.3545 0.6017,-0.8285 1.6356,-1.1231 -0.0589,-0.7148 0.1433,-1.1387 0.6913,-1.3152 0.7286,-0.1828 1.0071,-0.3277 1.3319,-1.05 2.6396,-0.8664 3.5841,2.1037 3.5396,3.0652 2.6701,-1.1211 6.5326,-3.8605 10.3609,-5.1066 5.5993,-2.5792 11.6078,-3.382 15.4091,0.0906 l 0,0 z"
         id="path245"
         inkscape:connector-curvature="0"
         style="fill:#fed018;stroke:#0a0b0c;stroke-width:0.3175;stroke-linejoin:round" /><path
         class="fil4 str1"
         d="m 277.15311,65.8089 c -5.1812,2.4164 -2.0776,8.4917 0.7215,10.4501 0.8125,0.568 0.7693,2.6903 0.096,3.6855 1.4909,0.2488 2.4686,-0.4977 2.9334,-2.2393 0.9315,-0.1523 1.7498,-0.5858 1.7798,-2.9859 0.7052,-0.2798 1.1701,-1.104 1.1056,-3.1255 2.152,-1.5453 0.6296,-5.1062 -1.779,-5.7849 -1.6192,0 -3.2379,0 -4.8573,0 l 0,0 z"
         id="path247"
         inkscape:connector-curvature="0"
         style="fill:#fed018;stroke:#0a0b0c;stroke-width:0.3175;stroke-linecap:round;stroke-linejoin:round" /><path
         class="fil4 str3"
         d="m 277.96711,63.6882 3.6067,0 c 0.4762,0 0.8654,0.3777 0.8654,0.8398 l 0,0.6531 c 0,0.4618 -0.3892,0.8399 -0.8655,0.8399 l -3.6066,0 c -0.4764,0 -0.8656,-0.378 -0.8656,-0.8399 l 0,-0.6531 c 0,-0.4621 0.3892,-0.8397 0.8656,-0.8397 l 0,-10e-5 z"
         id="path249"
         inkscape:connector-curvature="0"
         style="fill:#fed018;stroke:#0a0b0c;stroke-width:0.3175;stroke-linejoin:round" /><path
         class="fil5 str1"
         d="m 277.96711,63.6882 3.6067,0 c 0.4762,0 0.8654,0.3777 0.8654,0.8398 l 0,0.6531 c 0,0.4618 -0.3892,0.8399 -0.8655,0.8399 l -3.6066,0 c -0.4764,0 -0.8656,-0.378 -0.8656,-0.8399 l 0,-0.6531 c 0,-0.4621 0.3892,-0.8397 0.8656,-0.8397 l 0,-10e-5 z m 3.8038,4.36 c -0.0482,1.7411 1.8505,2.6712 2.0051,3.5316 m -3.3754,-1.3222 c 0.2124,1.6293 1.7797,1.5248 2.2649,4.4687 m -3.8363,-2.3151 c 0.2125,1.6292 2.4459,2.2937 2.0492,5.3217"
         id="path251"
         inkscape:connector-curvature="0"
         style="fill:none;stroke:#0a0b0c;stroke-width:0.3175;stroke-linecap:round;stroke-linejoin:round" /><path
         class="fil1 str1"
         d="m 239.54931,65.5391 c 1.5632,-1.4934 0.5006,-2.6022 -1.0555,-3.5104 0.4775,1.146 0.2136,1.8286 -0.7161,2.4867 0.5149,0.2436 1.2561,0.7801 1.7716,1.0238 l 0,-10e-5 z"
         id="path253"
         inkscape:connector-curvature="0"
         style="fill:#ffffff;stroke:#0a0b0c;stroke-width:0.3175;stroke-linecap:round;stroke-linejoin:round" /><path
         class="fil1 str1"
         d="m 235.62911,63.3451 c -0.3014,-1.3834 -1.2311,-2.0902 -2.9405,-1.426 0.7667,0.6095 1.0433,1.5723 0.905,2.6694 0.6029,-0.3657 1.432,-0.8778 2.0355,-1.2434 l 0,0 z"
         id="path255"
         inkscape:connector-curvature="0"
         style="fill:#ffffff;stroke:#0a0b0c;stroke-width:0.3175;stroke-linecap:round;stroke-linejoin:round" /><path
         class="fil1 str1"
         d="m 231.33181,66.7091 c -1.6658,-1.4624 -3.0251,-1.316 -3.5432,0.1464 1.3569,-0.1951 1.9979,0.402 2.4498,1.5722 0.2768,-0.4876 0.8165,-1.2311 1.0934,-1.7185 l 0,-10e-5 z"
         id="path257"
         inkscape:connector-curvature="0"
         style="fill:#ffffff;stroke:#0a0b0c;stroke-width:0.3175;stroke-linecap:round;stroke-linejoin:round" /><path
         class="fil1 str1"
         d="m 232.01011,71.4626 c -0.7288,0.9751 -1.5955,1.2798 -2.5256,1.2798 0.6725,1.1579 1.9665,1.2066 3.5432,0.8046 -0.3391,-0.7071 -0.6781,-1.3775 -1.0176,-2.0844 l 0,0 z"
         id="path259"
         inkscape:connector-curvature="0"
         style="fill:#ffffff;stroke:#0a0b0c;stroke-width:0.3175;stroke-linecap:round;stroke-linejoin:round" /><path
         class="fil4 str3"
         d="m 248.74011,72.977 c -3.1937,-0.578 -6.2557,-2.3071 -9.291,-4.2749 2.3311,-1.5029 1.7325,-2.7349 0.7149,-3.9284 -0.3174,0.1924 -0.9526,0 -1.9056,-0.5779 -0.6343,-0.8487 -1.3678,-1.581 -2.7991,-1.5019 -0.4564,0.6354 -1.0719,0.9627 -1.8462,0.9822 -0.5161,0.5776 -0.6351,1.1552 -0.3575,1.733 -1.4686,-0.3274 -2.4815,0 -2.6798,0.751 0.2196,0.9639 -0.1584,1.2908 -0.5955,1.7331 0.0994,1.6561 0.8536,2.5226 1.9059,2.4841 -0.3179,0.3659 -0.576,0.9051 -0.4169,1.7332 0.675,0.3659 0.9527,0.8857 0.8338,1.5599 1.0914,0.8088 2.3822,0.9435 4.1092,-0.4044 2.9579,1.242 5.0226,2.4359 5.1214,3.5239 2.4023,-1.2709 4.8042,-2.5419 7.2064,-3.8128 l 0,-10e-5 z"
         id="path261"
         inkscape:connector-curvature="0"
         style="fill:#fed018;stroke:#0a0b0c;stroke-width:0.3175;stroke-linejoin:round" /><path
         class="fil5 str1"
         d="m 248.74011,72.977 c -3.1937,-0.578 -6.2557,-2.3071 -9.291,-4.2749 2.3311,-1.5029 1.7325,-2.7349 0.7149,-3.9284 -0.3174,0.1924 -0.9526,0 -1.9056,-0.5779 -0.6343,-0.8487 -1.3678,-1.581 -2.7991,-1.5019 -0.4564,0.6354 -1.0719,0.9627 -1.8462,0.9822 -0.5161,0.5776 -0.6351,1.1552 -0.3575,1.733 -1.4686,-0.3274 -2.4815,0 -2.6798,0.751 0.2196,0.9639 -0.1584,1.2908 -0.5955,1.7331 0.0994,1.6561 0.8536,2.5226 1.9059,2.4841 -0.3179,0.3659 -0.576,0.9051 -0.4169,1.7332 0.675,0.3659 0.9527,0.8857 0.8338,1.5599 1.0914,0.8088 2.3822,0.9435 4.1092,-0.4044 2.9579,1.242 5.0226,2.4359 5.1214,3.5239 2.4023,-1.2709 4.8042,-2.5419 7.2064,-3.8128 l 0,-10e-5 z m -10.371,43.2594 c -3.1512,-0.586 -4.241,0.605 -4.0281,3.0153 m 33.4479,-2.4127 c -2.4473,-0.105 -2.7184,1.0529 -2.637,2.8748 m -30.8711,-5.9731 c 0.7938,-0.1871 1.6882,0.0537 2.7583,0.936 m 26.4642,0.4359 c 0.2149,-0.5333 1.6274,-0.6714 2.7046,-0.2725 m -13.873,-2.4279 c 1.6301,0.2102 2.7685,1.1864 3.2586,2.1681 m -1.5734,-20.6683 c -2.046,2.0957 -2.1607,4.1523 0.3783,5.9372 m 1.444,0.267 c -0.6796,-1.6318 -1.0028,-2.6726 -0.2067,-4.8697 0.7222,-1.9929 -0.8652,-3.4356 -2.4439,-4.3482 -0.8138,0.0951 -1.3731,-0.3045 -1.6815,-0.8664 m -3.8167,-1.7901 c 2.1842,2.5667 4.9645,2.4523 6.7048,-0.567 -1.7192,0.0418 -2.5676,-0.2867 -2.8193,-0.8676 2.7163,-1.3633 4.8594,-1.196 6.8412,-0.6004 0.4145,0.8622 0.9396,1.53 2.4417,1.5011 -0.3997,0.0315 -0.7548,-0.0592 -1.0666,-0.113 0.0807,1.251 1.1693,1.7862 2.7169,1.8805 m -21.0042,-1.1491 c 1.7881,-0.2883 3.2214,-0.7483 4.2998,-1.3811 m -4.8762,3.1766 c -0.2662,-0.8289 -0.7242,-1.3532 -1.446,-1.519 m -3.8726,2.7349 c -0.1494,0.7717 -0.3659,1.5244 0.5696,2.5965 m -3.5311,-4.1713 c -0.8024,0.0644 -1.5331,0.3589 -2.1075,1.1601 m 1.0401,-4.8008 c 0.8223,-0.1645 2.5956,0.4869 3.2884,1.8176 m 3.1311,-15.9786 c 1.6991,1.4506 3.2521,2.4299 4.4855,2.3737 m -6.0003,-3.2779 c 0.5699,0.3787 0.4766,1.6864 -0.1165,2.2149 m -4.4621,-2.8809 c 0.6127,0.0563 1.1695,-0.1558 1.5963,-0.5195 m 1.5259,-2.7701 c -0.5458,-0.8154 -1.1361,-1.4266 -1.8061,-1.6732 m 4.9795,-1.2427 c 0.1375,0.7257 0.1498,1.556 -0.1604,2.8615"
         id="path263"
         inkscape:connector-curvature="0"
         style="fill:none;stroke:#0a0b0c;stroke-width:0.3175;stroke-linecap:round;stroke-linejoin:round" /><path
         class="fil4 str1"
         d="m 260.93411,61.1465 c 0.1304,0.1263 0.2606,0.253 0.3916,0.3795 0.9209,-0.2898 2.0525,-0.4105 3.1305,0.3164 1.0984,0.7409 1.5518,1.9322 2.2179,2.6893 0.6211,0.7059 1.595,1.0172 2.4782,1.1072 -0.3566,2.2959 -1.9034,2.1987 -3.4894,2.0245 -1.7169,-0.9912 -3.4351,-1.9823 -5.1529,-2.9737 0.1416,-1.1812 0.2825,-2.3623 0.4241,-3.5431 l 0,-10e-5 z"
         id="path265"
         inkscape:connector-curvature="0"
         style="fill:#fed018;stroke:#0a0b0c;stroke-width:0.3175;stroke-linecap:round;stroke-linejoin:round" /><path
         class="fil4 str1"
         d="m 260.93411,64.9744 c 0.1304,0.1265 -0.065,-0.9175 0.0651,-0.7909 3.6049,-1.1338 4.1835,3.0242 5.6423,4.6823 0.6213,0.7059 1.6276,0.5113 2.5108,0.6009 -0.3566,2.2961 -1.9034,2.199 -3.4894,2.0248 -1.7169,-0.9912 -3.4351,-1.9825 -5.1529,-2.9738 0.1416,-1.1811 0.2825,-2.362 0.4241,-3.5432 l 0,-1e-4 z"
         id="path267"
         inkscape:connector-curvature="0"
         style="fill:#fed018;stroke:#0a0b0c;stroke-width:0.3175;stroke-linecap:round;stroke-linejoin:round" /><path
         class="fil4 str1"
         d="m 260.20711,68.7773 c 0.1302,0.1264 0.6619,-0.6274 0.792,-0.5008 0.4032,-0.1269 0.9562,-0.0097 1.5368,0.2284 2.658,1.0907 2.9274,4.0825 4.9855,5.0233 0.8657,0.3952 1.3021,0.4795 2.1855,0.4113 -0.3567,2.2958 -2.7519,2.7051 -4.3372,2.5308 -1.7178,-0.9913 -3.142,-2.5203 -4.8598,-3.5115 0.1416,-1.1812 -0.4446,-3.0005 -0.3028,-4.1812 l 0,-3e-4 z"
         id="path269"
         inkscape:connector-curvature="0"
         style="fill:#fed018;stroke:#0a0b0c;stroke-width:0.3175;stroke-linecap:round;stroke-linejoin:round" /><path
         class="fil4 str1"
         d="m 259.47011,72.4536 c 0.1302,0.1267 0.4518,-0.4046 1.3343,-0.163 0.2302,-0.0724 0.4973,-0.0613 0.7843,0.0085 3.1505,0.7658 3.1703,4.078 5.4451,5.1166 0.8647,0.3953 1.7904,0.3216 2.6738,0.2531 -0.2532,2.9477 -4.4097,2.7399 -6.0657,2.1196 -1.7179,-0.9913 -1.4134,-2.109 -3.1313,-3.1003 0.1417,-1.1813 -1.1822,-3.0533 -1.0405,-4.2344 l 0,-1e-4 z"
         id="path271"
         inkscape:connector-curvature="0"
         style="fill:#fed018;stroke:#0a0b0c;stroke-width:0.3175;stroke-linecap:round;stroke-linejoin:round" /><path
         class="fil4 str1"
         d="m 242.29711,75.3349 c -2.4767,1.9474 -4.6913,2.7939 -6.6444,2.5402 0.1742,1.4921 1.2219,2.3494 3.1419,2.5718 1.7789,-0.6033 3.5571,-1.2066 5.3352,-1.8098 0.9273,-0.7937 1.8548,-1.5875 2.7824,-2.3813 -1.5384,-0.3069 -3.0767,-0.6139 -4.6151,-0.9208 l 0,-10e-5 z"
         id="path273"
         inkscape:connector-curvature="0"
         style="fill:#fed018;stroke:#0a0b0c;stroke-width:0.3175;stroke-linecap:round;stroke-linejoin:round" /><path
         class="fil4 str1"
         d="m 245.14511,77.113 c -2.8459,0.0301 -6.5366,3.663 -10.0155,3.3339 0.5938,2.35 3.9218,3.0382 9.2303,-0.0318 0.6761,-1.0902 0.109,-2.2119 0.7852,-3.3021 l 0,0 z"
         id="path275"
         inkscape:connector-curvature="0"
         style="fill:#fed018;stroke:#0a0b0c;stroke-width:0.3175;stroke-linecap:round;stroke-linejoin:round" /><path
         class="fil4 str1"
         d="m 246.35611,76.8591 c -2.1924,1.3335 -3.7533,1.9049 -5.073,1.7144 -0.4576,2.0228 3.6043,3.6264 9.5432,-0.3809 -1.1019,-0.4446 -3.3681,-0.889 -4.4702,-1.3335 l 0,0 z"
         id="path277"
         inkscape:connector-curvature="0"
         style="fill:#fed018;stroke:#0a0b0c;stroke-width:0.3175;stroke-linecap:round;stroke-linejoin:round" /><path
         class="fil1 str1"
         d="m 249.88711,65.2336 c -0.1155,1.2874 0.0574,2.3509 0.8655,2.9218 0.0692,-1.1588 0.5191,-2.0094 1.1425,-2.7204 -0.6691,-0.0672 -1.3386,-0.1342 -2.008,-0.2014 l 0,0 z"
         id="path279"
         inkscape:connector-curvature="0"
         style="fill:#ffffff;stroke:#0a0b0c;stroke-width:0.3175;stroke-linecap:round;stroke-linejoin:round" /><path
         class="fil1 str1"
         d="m 249.76911,71.1781 c -0.1152,-1.2874 0.0578,-2.3507 0.8659,-2.9217 0.069,1.1588 0.5191,2.0097 1.1426,2.7203 -0.6696,0.0671 -1.3387,0.1344 -2.0085,0.2014 l 0,0 z"
         id="path281"
         inkscape:connector-curvature="0"
         style="fill:#ffffff;stroke:#0a0b0c;stroke-width:0.3175;stroke-linecap:round;stroke-linejoin:round" /><path
         class="fil4 str1"
         d="m 255.56411,68.4913 c -0.575,0.11 -1.1346,0.3745 -1.8001,-0.1007 -1.611,-1.1504 -2.9054,-0.7219 -4.2577,-0.6381 -3.0779,0.1909 -4.4054,-1.1867 -3.1509,-4.0639 -2.1168,0.0648 -2.6041,1.0655 -2.7005,2.2167 -0.2012,2.4011 2.4522,2.5159 4.2239,2.5525 2.2789,0.0469 3.8854,-0.2813 5.0548,0.6381 0.7929,0.6234 1.0274,1.3321 1.2805,1.9479 0.4271,-0.2127 0.8539,-0.4255 1.2808,-0.6381 0.0233,-0.6381 0.046,-1.2762 0.0692,-1.9143 l 0,-1e-4 z"
         id="path283"
         inkscape:connector-curvature="0"
         style="fill:#fed018;stroke:#0a0b0c;stroke-width:0.3175;stroke-linecap:round;stroke-linejoin:round" /><path
         class="fil4 str1"
         d="m 251.48411,72.4426 c -0.3167,-0.2223 -2.0297,-0.2509 -2.3465,-0.4733 -1.7781,0.5083 -3.6439,0.4236 -5.5966,-0.2538 -0.153,0.8362 0.0431,1.6296 0.5887,2.3811 2.3322,-0.0502 5.3687,-1.1673 7.3544,-1.654 l 0,0 z"
         id="path285"
         inkscape:connector-curvature="0"
         style="fill:#fed018;stroke:#0a0b0c;stroke-width:0.3175;stroke-linecap:round;stroke-linejoin:round" /><path
         class="fil4 str1"
         d="m 252.97711,59.6223 c -0.1977,0.1535 -0.396,0.3071 -0.5939,0.4606 0.0771,1.1519 -0.8359,0.9052 -1.5438,0.9985 -1.0075,0.1328 -1.3719,0.6911 -1.1081,1.5742 0.5016,-0.0129 1.003,-0.0256 1.5042,-0.0382 -0.7926,0.003 -1.742,-0.1427 -2.1772,0.4991 -0.3398,0.5006 -0.0744,2.3333 0.1634,2.6352 0.2528,0.3207 2.1277,0.5003 2.6816,0.2879 1.1393,-0.4365 2.1232,-0.9466 2.6961,0.4944 0.3713,0.9332 0.1433,2.0336 0.04,2.9951 -0.1182,1.095 -0.9308,1.3613 -2.3355,1.2289 -1.3065,-0.1232 -2.3746,-0.3843 -3.0476,-0.9217 0.0149,0.7424 -0.2504,1.5005 -0.7373,2.1407 2.1511,0.2048 4.2692,0.4939 6.3971,0.8545 2.1728,0.3683 3.3901,1.1403 4.364,2.9999 0.3697,0.3069 1.639,0.3793 2.0085,0.6863 0.158,-1.9328 -0.4355,-3.1361 -1.5436,-3.8398 2.0183,-0.0099 3.0344,-0.8867 3.3642,-2.2271 -1.3262,-0.0387 -2.2896,-0.32 -2.454,-1.3825 1.3589,0.0383 2.2961,-0.4864 2.8105,-1.5742 -1.7617,-0.2593 -2.3952,-1.4305 -2.256,-3.2256 1.5487,-0.8364 1.2823,-2.8761 0.9102,-3.6096 -0.4037,-0.7957 -1.7358,-0.6976 -2.7316,-0.5374 -0.2108,0.0892 -0.4226,0.1406 -0.6334,0.2304 -0.1977,-0.2562 -0.3956,-0.5123 -0.5934,-0.7681 -1.7279,0.0128 -3.4563,0.0256 -5.1844,0.0385 l 0,0 z"
         id="path287"
         inkscape:connector-curvature="0"
         style="fill:#fed018;stroke:#0a0b0c;stroke-width:0.3175;stroke-linecap:round;stroke-linejoin:round" /><path
         class="fil4 str3"
         d="m 254.08011,72.9853 c -1.4205,-0.8985 -2.8941,-1.4016 -4.877,-0.508 -3.5098,1.5818 -5.6972,1.3389 -7.9866,1.3655 0.0358,1.8255 0.9578,2.7886 3.1752,2.413 3.2296,-1.0903 6.4589,-2.1803 9.6883,-3.2705 l 1e-4,0 z"
         id="path289"
         inkscape:connector-curvature="0"
         style="fill:#fed018;stroke:#0a0b0c;stroke-width:0.3175;stroke-linejoin:round" /><path
         class="fil5 str1"
         d="m 254.08011,72.9853 c -1.4205,-0.8985 -2.8941,-1.4016 -4.877,-0.508 -3.5098,1.5818 -5.6972,1.3389 -7.9866,1.3655 0.0358,1.8255 0.9578,2.7886 3.1752,2.413 3.2296,-1.0903 6.4589,-2.1803 9.6883,-3.2705 l 1e-4,0 z m 1.2419,-0.3295 c 2.0296,-0.6366 2.897,-2.1057 2.8034,-4.2652"
         id="path291"
         inkscape:connector-curvature="0"
         style="fill:none;stroke:#0a0b0c;stroke-width:0.3175;stroke-linecap:round;stroke-linejoin:round" /><path
         class="fil4 str1"
         d="m 259.84011,75.8747 c -0.5918,-1.5981 -1.6585,-2.9225 -3.4361,-3.3337 -2.1027,-0.4868 -3.6501,0.4981 -5.2358,1.2064 -3.9316,1.756 -5.8067,1.297 -7.5614,1.0796 -0.1037,1.7728 0.6384,2.937 3.2405,2.7623 4.3314,-0.5714 8.662,-1.1431 12.9927,-1.7146 l 10e-5,0 z"
         id="path293"
         inkscape:connector-curvature="0"
         style="fill:#fed018;stroke:#0a0b0c;stroke-width:0.3175;stroke-linecap:round;stroke-linejoin:round" /><path
         class="fil4 str1"
         d="m 251.03611,78.6371 c -4.4851,0.7305 -5.0242,-0.7987 -5.4008,-2.1591 4.7736,0.2371 6.0416,-1.2437 10.0807,-1.651 5.9771,-0.6027 8.2682,3.3569 8.5091,6.4772 -4.2549,-0.5505 -8.935,-2.1169 -13.189,-2.6671 l 0,0 z"
         id="path295"
         inkscape:connector-curvature="0"
         style="fill:#fed018;stroke:#0a0b0c;stroke-width:0.3175;stroke-linecap:round;stroke-linejoin:round" /><path
         class="fil4 str1"
         d="m 257.05811,77.9068 c -2.6286,-0.9702 -5.2873,-0.275 -7.8871,1.0159 -2.3163,1.1501 -4.3262,1.8312 -5.8262,1.1748 0.541,2.0586 2.1091,3.1751 5.3021,2.0323 2.2814,-0.8165 4.4052,-1.7874 6.4478,-1.9053 0.6544,-0.7726 1.3088,-1.5452 1.9633,-2.3177 l 10e-5,0 z"
         id="path297"
         inkscape:connector-curvature="0"
         style="fill:#fed018;stroke:#0a0b0c;stroke-width:0.3175;stroke-linecap:round;stroke-linejoin:round" /><path
         class="fil4 str3"
         d="m 253.49111,82.1935 c 2.3167,-2.3195 5.7453,-2.9209 8.9712,0.1521 3.7656,3.5879 7.1662,2.3867 8.1791,-1.041 -7.0369,1.2699 -6.6715,-3.3415 -10.7032,-3.8738 -6.9047,-0.9115 -6.8694,2.35 -6.4471,4.7627 l 0,0 z"
         id="path299"
         inkscape:connector-curvature="0"
         style="fill:#fed018;stroke:#0a0b0c;stroke-width:0.3175;stroke-linejoin:round" /><path
         class="fil5 str1"
         d="m 253.49111,82.1935 c 2.3167,-2.3195 5.7453,-2.9209 8.9712,0.1521 3.7656,3.5879 7.1662,2.3867 8.1791,-1.041 -7.0369,1.2699 -6.6715,-3.3415 -10.7032,-3.8738 -6.9047,-0.9115 -6.8694,2.35 -6.4471,4.7627 l 0,0 z m -0.6218,-19.6829 c 0.3197,-0.2686 1.2297,-0.1089 1.8648,-0.0976 -0.4466,-0.5778 -1.1421,-0.8602 -2.0078,-0.9404 0.1152,0.0111 0.2306,0.0351 0.3462,0.0461 -0.0479,0.2962 -0.0268,0.5927 0.0302,0.8774 m 4.8432,0.1044 c -0.2285,-0.4225 0.1703,-1.672 0.8175,-2.1647 m 3.1551,0.0763 c -1.2222,0.1468 -2.1586,0.7819 -2.0739,3.1637 -0.6471,0.0628 -1.0876,-0.1814 -1.4232,-0.496"
         id="path301"
         inkscape:connector-curvature="0"
         style="fill:none;stroke:#0a0b0c;stroke-width:0.3175;stroke-linecap:round;stroke-linejoin:round" /></g></g></svg>